<?xml version="1.0" standalone="no"?>
<!DOCTYPE svg PUBLIC "-//W3C//DTD SVG 20010904//EN"
 "http://www.w3.org/TR/2001/REC-SVG-20010904/DTD/svg10.dtd">
<svg version="1.0" xmlns="http://www.w3.org/2000/svg"
 width="100.000000pt" height="87.000000pt" viewBox="0 0 100.000000 87.000000"
 preserveAspectRatio="xMidYMid meet">

<g transform="translate(0.000000,87.000000) scale(0.100000,-0.100000)"
fill="#000000" stroke="none">
<path d="M317 816 c-234 -96 -261 -307 -47 -367 89 -25 157 -89 180 -169 8
-28 5 -34 -28 -65 -21 -18 -44 -45 -51 -58 -12 -22 -11 -29 8 -56 l22 -30 -33
-18 -33 -18 59 -3 c32 -2 60 -1 62 1 2 2 -3 18 -12 35 -13 27 -13 36 -2 59 7
15 24 33 38 41 32 16 95 9 121 -14 22 -19 26 -83 7 -102 -18 -18 -5 -23 58
-20 l59 3 -33 18 -33 18 21 29 c27 38 21 58 -35 109 -40 37 -43 43 -35 71 24
85 82 139 183 170 151 47 187 159 86 273 -38 44 -136 102 -184 109 -26 4 -43
-41 -29 -79 10 -31 54 -43 79 -23 17 14 32 -10 41 -68 5 -35 3 -44 -19 -66
-29 -29 -45 -31 -96 -13 -32 11 -36 10 -67 -20 -26 -27 -40 -33 -74 -33 -34 0
-48 6 -75 33 -30 30 -35 32 -61 20 -44 -19 -73 -15 -99 12 -29 28 -31 60 -10
112 12 28 18 34 27 25 17 -17 54 -15 72 4 19 19 21 64 4 87 -12 15 -17 15 -71
-7z"/>
<path d="M503 770 c-79 -32 -71 -175 11 -204 31 -12 73 14 94 58 36 73 -37
173 -105 146z"/>
</g>
</svg>
